<svg width="40" height="40" viewBox="0 0 40 40" fill="none" xmlns="http://www.w3.org/2000/svg">
<path d="M21.8332 32.5C21.3385 32.5002 20.855 32.3538 20.4436 32.0791C20.0323 31.8044 19.7117 31.4138 19.5224 30.9569C19.3331 30.4999 19.2836 29.9971 19.3801 29.512C19.4767 29.0269 19.715 28.5813 20.0648 28.2317L27.7082 20.59C27.7858 20.5126 27.8473 20.4207 27.8894 20.3194C27.9314 20.2182 27.953 20.1096 27.953 20C27.953 19.8904 27.9314 19.7819 27.8894 19.6806C27.8473 19.5794 27.7858 19.4874 27.7082 19.41L20.0715 11.7684C19.6025 11.2996 19.3389 10.6637 19.3388 10.0006C19.3386 9.33752 19.6019 8.70152 20.0707 8.23253C20.5394 7.76354 21.1753 7.49997 21.8384 7.49982C22.5015 7.49966 23.1375 7.76293 23.6065 8.2317L31.2498 15.875C32.3419 16.9701 32.9551 18.4535 32.9551 20C32.9551 21.5466 32.3419 23.03 31.2498 24.125L23.6065 31.7684C23.3736 32.0011 23.0971 32.1855 22.7928 32.3111C22.4885 32.4366 22.1624 32.5008 21.8332 32.5Z" fill="white"/>
<path d="M10.1667 32.5C9.67204 32.5002 9.18847 32.3538 8.77714 32.0791C8.36581 31.8044 8.04521 31.4138 7.85589 30.9569C7.66658 30.4999 7.61707 29.9971 7.71363 29.512C7.81018 29.0269 8.04847 28.5813 8.39833 28.2317L16.6367 20L8.405 11.7684C7.936 11.2996 7.67244 10.6637 7.67228 10.0006C7.67213 9.33752 7.93539 8.70152 8.40416 8.23253C8.87293 7.76354 9.50881 7.49997 10.1719 7.49982C10.835 7.49966 11.471 7.76293 11.94 8.2317L21.94 18.2317C22.1723 18.4639 22.3566 18.7395 22.4823 19.0429C22.6081 19.3464 22.6728 19.6716 22.6728 20C22.6728 20.3285 22.6081 20.6537 22.4823 20.9571C22.3566 21.2605 22.1723 21.5362 21.94 21.7684L11.94 31.7684C11.7071 32.0011 11.4306 32.1855 11.1263 32.3111C10.822 32.4366 10.4959 32.5008 10.1667 32.5Z" fill="white"/>
</svg>
