<svg width="40" height="40" viewBox="0 0 40 40" fill="none" xmlns="http://www.w3.org/2000/svg">
<g clip-path="url(#clip0_49_6)">
<path d="M39.5118 37.155L29.5635 27.2067C32.2745 23.891 33.6074 19.6602 33.2865 15.3893C32.9656 11.1184 31.0155 7.13422 27.8394 4.26087C24.6634 1.38752 20.5044 -0.155177 16.2229 -0.0481237C11.9413 0.0589293 7.86463 1.80754 4.83615 4.83602C1.80766 7.86451 0.0590514 11.9412 -0.0480017 16.2227C-0.155055 20.5043 1.38764 24.6633 4.26099 27.8393C7.13434 31.0154 11.1185 32.9655 15.3894 33.2864C19.6603 33.6073 23.8911 32.2744 27.2068 29.5633L37.1551 39.5117C37.4695 39.8153 37.8905 39.9833 38.3275 39.9795C38.7645 39.9757 39.1825 39.8004 39.4915 39.4914C39.8005 39.1824 39.9758 38.7643 39.9796 38.3273C39.9834 37.8903 39.8154 37.4693 39.5118 37.155ZM16.6668 30C14.0297 30 11.4518 29.218 9.25919 27.7529C7.06653 26.2878 5.35757 24.2055 4.3484 21.7691C3.33923 19.3328 3.07518 16.6519 3.58965 14.0655C4.10412 11.4791 5.374 9.10328 7.2387 7.23858C9.1034 5.37388 11.4792 4.104 14.0656 3.58953C16.652 3.07506 19.3329 3.33911 21.7692 4.34828C24.2056 5.35744 26.288 7.06641 27.7531 9.25907C29.2181 11.4517 30.0001 14.0296 30.0001 16.6667C29.9962 20.2017 28.5901 23.5908 26.0905 26.0904C23.5909 28.59 20.2018 29.996 16.6668 30Z" fill="white"/>
</g>
<defs>
<clipPath id="clip0_49_6">
<rect width="40" height="40" fill="white"/>
</clipPath>
</defs>
</svg>
