<svg width="40" height="40" viewBox="0 0 40 40" fill="none" xmlns="http://www.w3.org/2000/svg">
<g clip-path="url(#clip0_132_31)">
<path d="M3.33333 11.6667V10C3.33333 4.47667 7.81 0 13.3333 0H26.6667C32.19 0 36.6667 4.47667 36.6667 10V11.6667C32.985 11.6667 30 14.6517 30 18.3333V21.6667H10V18.3333C10 14.6517 7.015 11.6667 3.33333 11.6667ZM36.6667 15C34.825 15 33.3333 16.4917 33.3333 18.3333V33.3333H30V25H10V33.3333H6.66667V18.3333C6.66667 16.4917 5.175 15 3.33333 15H0V36.6667H3.33333V40H6.66667V36.6667H33.3333V40H36.6667V36.6667H40V15H36.6667Z" fill="white"/>
</g>
<defs>
<clipPath id="clip0_132_31">
<rect width="40" height="40" fill="white"/>
</clipPath>
</defs>
</svg>
