<svg width="40" height="40" viewBox="0 0 40 40" fill="none" xmlns="http://www.w3.org/2000/svg">
<g clip-path="url(#clip0_49_26)">
<path d="M8.33333 33.3333H21.6667C26.2617 33.3333 30 29.595 30 25V15C30 10.405 26.2617 6.66666 21.6667 6.66666H8.33333C3.73833 6.66666 0 10.405 0 15V25C0 29.595 3.73833 33.3333 8.33333 33.3333ZM40 13.855V26.0533C40 27.315 39.3 28.4483 38.1717 29.0117C37.7 29.2467 37.1933 29.3633 36.69 29.3633C35.9883 29.3633 35.295 29.1383 34.7083 28.6983C34.6467 28.6517 33.3333 27.3483 33.3333 27.3483V12.5733C33.3333 12.5733 34.6433 11.2583 34.7083 11.21C35.715 10.4533 37.04 10.3317 38.1717 10.8967C39.3033 11.4617 40 12.5933 40 13.855Z" fill="white"/>
</g>
<defs>
<clipPath id="clip0_49_26">
<rect width="40" height="40" fill="white"/>
</clipPath>
</defs>
</svg>
