<svg width="40" height="40" viewBox="0 0 40 40" fill="none" xmlns="http://www.w3.org/2000/svg">
<path d="M30.0002 10C29.6876 9.68755 29.2638 9.51202 28.8219 9.51202C28.3799 9.51202 27.9561 9.68755 27.6435 10L20.0002 17.6433L12.3569 10C12.0443 9.68755 11.6205 9.51202 11.1785 9.51202C10.7366 9.51202 10.3127 9.68755 10.0002 10C9.68773 10.3125 9.51221 10.7364 9.51221 11.1783C9.51221 11.6203 9.68773 12.0441 10.0002 12.3567L17.6435 20L10.0002 27.6433C9.68773 27.9559 9.51221 28.3797 9.51221 28.8217C9.51221 29.2636 9.68773 29.6875 10.0002 30C10.3127 30.3125 10.7366 30.488 11.1785 30.488C11.6205 30.488 12.0443 30.3125 12.3569 30L20.0002 22.3567L27.6435 30C27.9561 30.3125 28.3799 30.488 28.8219 30.488C29.2638 30.488 29.6876 30.3125 30.0002 30C30.3126 29.6875 30.4882 29.2636 30.4882 28.8217C30.4882 28.3797 30.3126 27.9559 30.0002 27.6433L22.3569 20L30.0002 12.3567C30.3126 12.0441 30.4882 11.6203 30.4882 11.1783C30.4882 10.7364 30.3126 10.3125 30.0002 10Z" fill="white"/>
</svg>
