<svg width="40" height="40" viewBox="0 0 40 40" fill="none" xmlns="http://www.w3.org/2000/svg">
<g clip-path="url(#clip0_49_24)">
<path d="M40 21.6667V31.6667C40 36.2683 36.2683 40 31.6666 40H9.99996C5.39829 40 1.66662 36.2683 1.66662 31.6667V18.3333H3.57162L11.925 5.33334L17.0566 3.94167L8.28496 17.655L5.83162 18.2967L5.75996 18.3333H36.6666C38.5083 18.3333 40 19.825 40 21.6667ZM28.3 12.4267L35.41 1.02167C34.425 0.271673 33.1733 -0.10666 31.8483 0.0250065L23.0766 13.79L28.3 12.4267ZM36.0116 10.4117C37.4533 10.035 38.335 8.58167 38.0033 7.12834L37.34 4.22667L32.9933 11.2L36.0116 10.4117ZM18.3333 15.03L27.1433 1.20834L21.845 2.64501L13.0366 16.4133L18.3333 15.03ZM3.92329 7.50167C1.23162 8.09501 -0.476709 10.7667 0.118291 13.4717L0.813291 16.515L7.13496 6.63167L3.92329 7.50167Z" fill="white"/>
</g>
<defs>
<clipPath id="clip0_49_24">
<rect width="40" height="40" fill="white"/>
</clipPath>
</defs>
</svg>
