<svg width="40" height="40" viewBox="0 0 40 40" fill="none" xmlns="http://www.w3.org/2000/svg">
<g clip-path="url(#clip0_48_225)">
<path d="M16.4634 30.2034C18.4154 32.1566 21.5812 32.1577 23.5345 30.2056C23.5353 30.2048 23.536 30.2041 23.5367 30.2034L28.8884 24.8517C29.5057 24.169 29.4527 23.115 28.7699 22.4977C28.1342 21.9229 27.1663 21.9239 26.5317 22.5L21.6551 27.3784L21.6667 1.66672C21.6667 0.746172 20.9205 0 20 0C19.0796 0 18.3334 0.746172 18.3334 1.66664L18.3184 27.3466L13.4684 22.5C12.8171 21.8492 11.7617 21.8496 11.1109 22.5009C10.4601 23.1521 10.4605 24.2076 11.1117 24.8584L16.4634 30.2034Z" fill="white"/>
<path d="M38.3334 26.6666C37.4129 26.6666 36.6667 27.4128 36.6667 28.3333V35C36.6667 35.9205 35.9205 36.6666 35.0001 36.6666H5C4.07953 36.6666 3.33336 35.9205 3.33336 35V28.3333C3.33336 27.4129 2.58719 26.6667 1.66672 26.6667C0.746172 26.6666 0 27.4129 0 28.3333V35C0 37.7614 2.23859 40 5 40H35C37.7614 40 40 37.7614 40 35V28.3333C40 27.4129 39.2538 26.6666 38.3334 26.6666Z" fill="white"/>
</g>
<defs>
<clipPath id="clip0_48_225">
<rect width="40" height="40" fill="white"/>
</clipPath>
</defs>
</svg>
