<svg width="40" height="40" viewBox="0 0 40 40" fill="none" xmlns="http://www.w3.org/2000/svg">
<g clip-path="url(#clip0_296_36)">
<path d="M20 0C8.97167 0 0 8.97167 0 20C0 31.0283 8.97167 40 20 40C31.0283 40 40 31.0283 40 20C40 8.97167 31.0283 0 20 0ZM11.6667 26.6667C11.6667 27.5883 10.92 28.3333 10 28.3333C9.08 28.3333 8.33333 27.5883 8.33333 26.6667V16.8333L7.46167 17.79C6.84167 18.4667 5.78833 18.52 5.10667 17.8983C4.42667 17.2783 4.37667 16.225 4.99667 15.5433L7.88333 12.375C8.50333 11.705 9.44167 11.4883 10.2817 11.8183C11.1217 12.1467 11.6667 12.9417 11.6667 13.845V26.6667ZM23.3333 25C24.255 25 25 25.745 25 26.6667C25 27.5883 24.255 28.3333 23.3333 28.3333H16.6667C15.7467 28.3333 15 27.5883 15 26.6667C15 24.405 16.7333 22.91 18.4083 21.4667C20.085 20.0217 21.6667 18.655 21.6667 16.6667C21.6667 15.7467 20.92 15 20 15C19.08 15 18.3333 15.7467 18.3333 16.6667C18.3333 17.5867 17.5867 18.3333 16.6667 18.3333C15.7467 18.3333 15 17.5883 15 16.6667C15 13.91 17.2433 11.6667 20 11.6667C22.7567 11.6667 25 13.91 25 16.6667C25 20.1817 22.5517 22.2933 20.585 23.99C20.1967 24.3267 19.8 24.6683 19.4517 25H23.3333ZM35 21.6667H33.3333V23.3333C33.3333 24.255 32.5883 25 31.6667 25C30.745 25 30 24.255 30 23.3333V21.6667H28.3333C27.4117 21.6667 26.6667 20.9217 26.6667 20C26.6667 19.0783 27.4117 18.3333 28.3333 18.3333H30V16.6667C30 15.745 30.745 15 31.6667 15C32.5883 15 33.3333 15.745 33.3333 16.6667V18.3333H35C35.9217 18.3333 36.6667 19.0783 36.6667 20C36.6667 20.9217 35.9217 21.6667 35 21.6667Z" fill="white"/>
</g>
<defs>
<clipPath id="clip0_296_36">
<rect width="40" height="40" fill="white"/>
</clipPath>
</defs>
</svg>
