<svg width="40" height="40" viewBox="0 0 40 40" fill="none" xmlns="http://www.w3.org/2000/svg">
<g clip-path="url(#clip0_296_18)">
<path d="M16.6667 17.5V22.5C16.6667 23.8783 15.545 25 14.1667 25C12.7883 25 11.6667 23.8783 11.6667 22.5V17.5C11.6667 16.1217 12.7883 15 14.1667 15C15.545 15 16.6667 16.1217 16.6667 17.5ZM40 20C40 31.0283 31.0283 40 20 40C8.97167 40 0 31.0283 0 20C0 8.97167 8.97167 0 20 0C31.0283 0 40 8.97167 40 20ZM20 17.5C20 14.2833 17.3833 11.6667 14.1667 11.6667C10.95 11.6667 8.33333 14.2833 8.33333 17.5V22.5C8.33333 25.7167 10.95 28.3333 14.1667 28.3333C17.3833 28.3333 20 25.7167 20 22.5V17.5ZM31.6667 18.3333H28.3333V15H25V18.3333H21.6667V21.6667H25V25H28.3333V21.6667H31.6667V18.3333Z" fill="white"/>
</g>
<defs>
<clipPath id="clip0_296_18">
<rect width="40" height="40" fill="white"/>
</clipPath>
</defs>
</svg>
