<svg width="40" height="40" viewBox="0 0 40 40" fill="none" xmlns="http://www.w3.org/2000/svg">
<g clip-path="url(#clip0_296_29)">
<path d="M19.1667 17.9167C18.1333 17.9167 17.2917 17.075 17.2917 16.0417C17.2917 15.0083 18.1333 14.1667 19.1667 14.1667C20.2 14.1667 21.0417 15.0083 21.0417 16.0417C21.0417 17.075 20.2 17.9167 19.1667 17.9167ZM40 20C40 31.0283 31.0283 40 20 40C8.97167 40 0 31.0283 0 20C0 8.97167 8.97167 0 20 0C31.0283 0 40 8.97167 40 20ZM10 11.6667H7.52L3.32667 16.295L5.79667 18.5317L6.665 17.5733V28.3333H9.99833L10 11.6667ZM24.7917 23.5417C24.7917 21.945 24.1167 20.51 23.0433 19.485C23.8617 18.565 24.375 17.3667 24.375 16.0417C24.375 13.17 22.0383 10.8333 19.1667 10.8333C16.295 10.8333 13.9583 13.17 13.9583 16.0417C13.9583 17.3667 14.4717 18.565 15.29 19.485C14.2183 20.51 13.5417 21.945 13.5417 23.5417C13.5417 26.6433 16.065 29.1667 19.1667 29.1667C22.2683 29.1667 24.7917 26.6433 24.7917 23.5417ZM36.6667 21.6667V18.3333H33.3333V15H30V18.3333H26.6667V21.6667H30V25H33.3333V21.6667H36.6667ZM19.1667 21.25C17.9033 21.25 16.875 22.2783 16.875 23.5417C16.875 24.805 17.9033 25.8333 19.1667 25.8333C20.43 25.8333 21.4583 24.805 21.4583 23.5417C21.4583 22.2783 20.43 21.25 19.1667 21.25Z" fill="white"/>
</g>
<defs>
<clipPath id="clip0_296_29">
<rect width="40" height="40" fill="white"/>
</clipPath>
</defs>
</svg>
