<svg width="40" height="40" viewBox="0 0 40 40" fill="none" xmlns="http://www.w3.org/2000/svg">
<path d="M21.6667 22.9167C21.6667 24.295 20.545 25.4167 19.1667 25.4167C17.7883 25.4167 16.6667 24.295 16.6667 22.9167C16.6667 21.5383 17.7883 20.4167 19.1667 20.4167C20.545 20.4167 21.6667 21.5383 21.6667 22.9167ZM40 20C40 31.0283 31.0283 40 20 40C8.97167 40 0 31.0283 0 20C0 8.97167 8.97167 0 20 0C31.0283 0 40 8.97167 40 20ZM10 13.845C10 12.9417 9.45667 12.1467 8.61667 11.8183C7.77667 11.4883 6.83833 11.705 6.21833 12.375L3.33167 15.5433C2.71167 16.2233 2.76 17.2783 3.44 17.8983C4.125 18.52 5.17667 18.4683 5.795 17.79L6.66667 16.8317V26.6667C6.66667 27.5883 7.41167 28.3333 8.33333 28.3333C9.255 28.3333 10 27.5883 10 26.6667V13.845ZM25 22.9167C25 19.7 22.3833 17.0833 19.1667 17.0833C18.28 17.0833 17.4467 17.2983 16.6933 17.6533C16.83 15.94 18.2517 14.5833 20 14.5833H21.6667C22.5883 14.5833 23.3333 13.8383 23.3333 12.9167C23.3333 11.995 22.5883 11.25 21.6667 11.25H20C16.3233 11.25 13.3333 14.24 13.3333 17.9167V22.9167C13.3333 26.1333 15.95 28.75 19.1667 28.75C22.3833 28.75 25 26.1333 25 22.9167ZM36.6667 20C36.6667 19.0783 35.9217 18.3333 35 18.3333H33.3333V16.6667C33.3333 15.745 32.5883 15 31.6667 15C30.745 15 30 15.745 30 16.6667V18.3333H28.3333C27.4117 18.3333 26.6667 19.0783 26.6667 20C26.6667 20.9217 27.4117 21.6667 28.3333 21.6667H30V23.3333C30 24.255 30.745 25 31.6667 25C32.5883 25 33.3333 24.255 33.3333 23.3333V21.6667H35C35.9217 21.6667 36.6667 20.9217 36.6667 20Z" fill="white"/>
</svg>
