<svg width="40" height="40" viewBox="0 0 40 40" fill="none" xmlns="http://www.w3.org/2000/svg">
<g clip-path="url(#clip0_174_21)">
<path d="M40 20.1216C40 30.1033 32.6767 38.3783 23.1167 39.88V25.9416H27.765L28.65 20.175H23.1167V16.4333C23.1167 14.855 23.89 13.3183 26.3667 13.3183H28.8817V8.40831C28.8817 8.40831 26.5983 8.01831 24.4167 8.01831C19.86 8.01831 16.8833 10.78 16.8833 15.7783V20.1733H11.8183V25.94H16.8833V39.8783C7.325 38.375 0 30.1016 0 20.1216C0 9.07664 8.955 0.121643 20 0.121643C31.045 0.121643 40 9.07498 40 20.1216Z" fill="white"/>
</g>
<defs>
<clipPath id="clip0_174_21">
<rect width="40" height="40" fill="white"/>
</clipPath>
</defs>
</svg>
