<svg width="35" height="35" viewBox="0 0 35 35" fill="none" xmlns="http://www.w3.org/2000/svg">
<path d="M16.9871 15.3726C15.9663 15.5032 15.2424 16.4397 15.3729 17.4602C15.5033 18.4807 16.4399 19.2049 17.4604 19.0744C18.4809 18.944 19.2051 18.0074 19.0747 16.9869C19.0114 16.4963 18.7561 16.0507 18.3647 15.7481C17.9734 15.4455 17.4779 15.3104 16.9871 15.3726ZM20.8082 6.34685C19.0524 6.57134 17.7604 8.05581 17.7246 9.77494C18.8047 9.84655 19.8563 10.1527 20.806 10.6722C21.7558 11.1917 22.5809 11.9119 23.2239 12.7828C24.2972 12.0599 24.9348 10.7715 24.7598 9.40287C24.5131 7.47048 22.7402 6.09985 20.8082 6.34685ZM17.834 10.7222C18.2667 12.4263 19.9167 13.5829 21.7041 13.3544C21.9346 13.325 22.1569 13.2731 22.3694 13.2025C21.8226 12.5014 21.1382 11.9197 20.3582 11.4932C19.5782 11.0666 18.7192 10.8043 17.834 10.7222ZM11.2324 14.6266C11.4558 14.6415 11.6837 14.6355 11.9138 14.6061C13.7012 14.3776 15.0075 12.843 14.9972 11.0846C14.1612 11.3868 13.3959 11.857 12.7484 12.4662C12.101 13.0754 11.5851 13.8106 11.2324 14.6266Z" fill="#EB0033"/>
<path d="M29.5865 27.737C29.558 27.7403 29.615 27.7333 29.5865 27.737C29.1321 27.7951 28.6234 27.9112 28.1515 28.0595C31.3718 24.8046 33.1197 20.1549 32.4953 15.2714C31.4188 6.85077 23.6921 0.875853 15.2714 1.95242C6.85077 3.02899 0.875858 10.7556 1.95243 19.1763C3.02899 27.597 10.7556 33.5719 19.1763 32.4953C21.1097 32.2501 22.9784 31.6381 24.6824 30.6921C24.6961 30.6862 24.7103 30.6817 24.7238 30.6741C28.8361 28.3775 31.4609 27.657 33.554 30.4206C33.5908 30.4695 33.637 30.5107 33.6898 30.5417C33.7426 30.5728 33.801 30.5931 33.8617 30.6016C33.9224 30.61 33.9841 30.6063 34.0434 30.5908C34.1027 30.5753 34.1583 30.5483 34.2071 30.5112C34.256 30.4743 34.2971 30.4281 34.3281 30.3752C34.3591 30.3224 34.3794 30.2639 34.3878 30.2032C34.3961 30.1425 34.3925 30.0808 34.377 30.0215C34.3615 29.9622 34.3344 29.9066 34.2974 29.8578C33.0511 28.2112 31.4815 27.5213 29.5865 27.737ZM20.6899 5.42105C23.1323 5.10879 25.3734 6.84174 25.6856 9.28416C25.9979 11.7266 24.2649 13.9676 21.8225 14.2798C19.3801 14.5921 17.1391 12.8592 16.8268 10.4167C16.5146 7.97432 18.2475 5.73331 20.6899 5.42105ZM20.0006 16.8689C20.1963 18.3998 19.1101 19.8048 17.5789 20.0006C16.0476 20.1963 14.6429 19.1101 14.4472 17.5789C14.2514 16.0476 15.3377 14.6429 16.8689 14.4472C18.3998 14.2515 19.8048 15.3377 20.0006 16.8689ZM10.8996 6.67273C13.342 6.36047 15.583 8.09342 15.8953 10.5358C16.2075 12.9782 14.4746 15.2193 12.0321 15.5315C9.58973 15.8438 7.34872 14.1108 7.03646 11.6684C6.7242 9.226 8.45715 6.98498 10.8996 6.67273ZM10.1908 25.32C7.74834 25.6322 5.50732 23.8993 5.19506 21.4569C4.88281 19.0145 6.61576 16.7734 9.05817 16.4612C11.5006 16.1489 13.7416 17.8822 14.0539 20.3246C14.3661 22.7667 12.6332 25.0077 10.1908 25.32ZM18.8558 29.9884C16.4134 30.3007 14.1724 28.5677 13.8601 26.1253C13.5479 23.6829 15.2808 21.4419 17.7232 21.1296C20.1656 20.8174 22.4066 22.5503 22.7189 24.9927C23.0312 27.4351 21.2982 29.6762 18.8558 29.9884ZM21.0716 19.4274C20.7594 16.985 22.4923 14.744 24.9348 14.4317C27.3772 14.1195 29.6182 15.8524 29.9304 18.2948C30.2427 20.7373 28.5097 22.9783 26.0673 23.2905C23.6249 23.6025 21.3839 21.8695 21.0716 19.4274Z" fill="#EB0033"/>
<path d="M10.2988 14.4349C10.7022 13.4304 11.3197 12.5259 12.1082 11.7844C12.8968 11.0429 13.8375 10.4821 14.8649 10.1412C14.398 8.48599 12.7738 7.37402 11.0179 7.5985C9.08588 7.84551 7.71487 9.61808 7.96192 11.5504C8.1369 12.9191 9.07803 14.0053 10.2988 14.4349ZM9.76098 17.3616C9.5659 17.354 9.37052 17.3624 9.17684 17.3869C7.24483 17.6339 5.87381 19.4065 6.12086 21.3388C6.36786 23.2708 8.14044 24.6419 10.0728 24.3948C10.5478 24.3341 11.0054 24.1773 11.4177 23.9339C11.83 23.6904 12.1884 23.3655 12.471 22.979C11.0004 21.7684 10.0637 20.0773 9.81994 18.1708C9.78559 17.9023 9.7659 17.6322 9.76098 17.3616ZM10.6992 17.5268C10.7075 17.7025 10.7228 17.8777 10.745 18.0522C10.9505 19.6597 11.7199 21.0914 12.9272 22.1415C13.1334 21.6006 13.2026 21.0171 13.1288 20.4429C12.949 19.0397 11.9646 17.9331 10.6992 17.5268ZM20.5473 22.8456C20.1751 22.5346 19.7426 22.3039 19.277 22.1679C18.8113 22.0318 18.3226 21.9934 17.8415 22.0551C17.3605 22.1164 16.8973 22.2764 16.481 22.5251C16.0647 22.7738 15.7042 23.1057 15.4222 23.5002C16.2762 23.7452 17.171 23.8141 18.0525 23.7026C18.9342 23.5899 19.7869 23.2943 20.5473 22.8456ZM18.1705 24.6281C17.0971 24.765 16.0067 24.6676 14.9746 24.3428C14.7782 24.8741 14.7134 25.4451 14.7855 26.007C15.0325 27.939 16.8051 29.31 18.7374 29.063C20.6698 28.8159 22.0405 27.0434 21.7934 25.111C21.719 24.529 21.5053 23.9986 21.1917 23.5476C20.2744 24.1216 19.2437 24.4902 18.1705 24.6281ZM25.053 15.3572C24.8562 15.3823 24.6653 15.424 24.4813 15.4796C24.5442 15.7423 24.5938 16.0091 24.6281 16.2772C24.8718 18.1831 24.3911 20.056 23.272 21.5977C23.6426 21.9009 24.0711 22.1252 24.5314 22.2571C24.9917 22.389 25.474 22.4256 25.9489 22.3647C27.8809 22.1177 29.252 20.3452 29.0049 18.4128C28.758 16.4811 26.985 15.1102 25.053 15.3572ZM23.6148 15.8756C22.4924 16.5872 21.818 17.9058 21.9974 19.3091C22.0734 19.9036 22.2944 20.4448 22.6195 20.9023C23.5237 19.5823 23.9081 18.0024 23.7027 16.3955C23.6804 16.2211 23.6506 16.0476 23.6148 15.8756Z" fill="#EB0033"/>
</svg>
