<svg width="40" height="40" viewBox="0 0 40 40" fill="none" xmlns="http://www.w3.org/2000/svg">
<g clip-path="url(#clip0_49_8)">
<path d="M29.1664 3.19501C27.2897 3.2242 25.4539 3.7481 23.8444 4.71379C22.2349 5.67949 20.9087 7.05279 19.9998 8.69501C19.0908 7.05279 17.7647 5.67949 16.1552 4.71379C14.5457 3.7481 12.7099 3.2242 10.8331 3.19501C7.84134 3.32499 5.02261 4.63376 2.99274 6.83539C0.962867 9.03702 -0.11315 11.9525 -0.000232277 14.945C-0.000232277 22.5233 7.97643 30.8 14.6664 36.4117C16.1601 37.6669 18.0487 38.355 19.9998 38.355C21.9508 38.355 23.8394 37.6669 25.3331 36.4117C32.0231 30.8 39.9998 22.5233 39.9998 14.945C40.1127 11.9525 39.0367 9.03702 37.0068 6.83539C34.9769 4.63376 32.1582 3.32499 29.1664 3.19501Z" fill="white"/>
</g>
<defs>
<clipPath id="clip0_49_8">
<rect width="40" height="40" fill="white"/>
</clipPath>
</defs>
</svg>
