<svg width="40" height="40" viewBox="0 0 40 40" fill="none" xmlns="http://www.w3.org/2000/svg">
<g clip-path="url(#clip0_49_28)">
<path d="M38.3333 18.3333H1.66667C0.746192 18.3333 0 19.0795 0 20C0 20.9205 0.746192 21.6667 1.66667 21.6667H38.3333C39.2538 21.6667 40 20.9205 40 20C40 19.0795 39.2538 18.3333 38.3333 18.3333Z" fill="white"/>
<path d="M38.3333 6.66666H1.66667C0.746192 6.66666 0 7.41285 0 8.33332C0 9.2538 0.746192 9.99999 1.66667 9.99999H38.3333C39.2538 9.99999 40 9.2538 40 8.33332C40 7.41285 39.2538 6.66666 38.3333 6.66666Z" fill="white"/>
<path d="M38.3333 30H1.66667C0.746192 30 0 30.7462 0 31.6667C0 32.5871 0.746192 33.3333 1.66667 33.3333H38.3333C39.2538 33.3333 40 32.5871 40 31.6667C40 30.7462 39.2538 30 38.3333 30Z" fill="white"/>
</g>
<defs>
<clipPath id="clip0_49_28">
<rect width="40" height="40" fill="white"/>
</clipPath>
</defs>
</svg>
