<svg width="40" height="40" viewBox="0 0 40 40" fill="none" xmlns="http://www.w3.org/2000/svg">
<g clip-path="url(#clip0_49_14)">
<path d="M36.5836 10.8616C36.4695 9.92582 36.1588 9.02478 35.6719 8.2176C35.185 7.41041 34.5328 6.71533 33.7583 6.17799C32.9837 5.64065 32.1043 5.27319 31.1777 5.09974C30.2512 4.92629 29.2984 4.95077 28.3819 5.17157C27.3498 4.0501 25.9176 3.38012 24.3953 3.30657C23.9882 2.46615 23.3863 1.73513 22.6395 1.17441C21.8928 0.61368 21.0229 0.23947 20.1023 0.0829393C19.1817 -0.0735916 18.2371 -0.00791314 17.347 0.274505C16.4569 0.556923 15.6472 1.04791 14.9853 1.70657C13.7307 1.5084 12.4459 1.73043 11.3306 2.33809C10.2154 2.94576 9.33222 3.905 8.81858 5.06657C7.40361 5.3148 6.1064 6.01268 5.11951 7.05662C4.13262 8.10055 3.50866 9.4349 3.34025 10.8616C-0.263083 12.5782 -1.93308 19.6649 3.44858 19.9732H8.29525C9.37549 19.9737 10.4394 20.2367 11.3955 20.7396C12.3515 21.2424 13.1711 21.9701 13.7836 22.8599C14.5487 21.9705 15.4968 21.2568 16.5631 20.7676C17.6294 20.2783 18.7887 20.025 19.9619 20.025C21.1351 20.025 22.2945 20.2783 23.3608 20.7676C24.427 21.2568 25.3751 21.9705 26.1403 22.8599C26.7527 21.9701 27.5723 21.2424 28.5284 20.7396C29.4844 20.2367 30.5483 19.9737 31.6286 19.9732H36.4753C41.8569 19.6649 40.1869 12.5799 36.5836 10.8616ZM14.9619 11.6399C14.5199 11.6399 14.096 11.8155 13.7834 12.1281C13.4708 12.4406 13.2953 12.8645 13.2953 13.3066C13.2953 13.7486 13.1197 14.1725 12.8071 14.4851C12.4945 14.7976 12.0706 14.9732 11.6286 14.9732C11.1866 14.9732 10.7626 14.7976 10.4501 14.4851C10.1375 14.1725 9.96192 13.7486 9.96192 13.3066C9.96192 11.9805 10.4887 10.7087 11.4264 9.77104C12.3641 8.83335 13.6358 8.30657 14.9619 8.30657C15.4039 8.30657 15.8279 8.48217 16.1404 8.79473C16.453 9.10729 16.6286 9.53121 16.6286 9.97324C16.6286 10.4153 16.453 10.8392 16.1404 11.1517C15.8279 11.4643 15.4039 11.6399 14.9619 11.6399ZM28.2953 16.6399C27.8532 16.6399 27.4293 16.4643 27.1167 16.1517C26.8042 15.8392 26.6286 15.4153 26.6286 14.9732C26.6286 14.5312 26.453 14.1073 26.1404 13.7947C25.8279 13.4822 25.4039 13.3066 24.9619 13.3066C24.5199 13.3066 24.096 13.131 23.7834 12.8184C23.4708 12.5059 23.2953 12.0819 23.2953 11.6399C23.2953 11.1979 23.4708 10.774 23.7834 10.4614C24.096 10.1488 24.5199 9.97324 24.9619 9.97324C26.288 9.97324 27.5598 10.5 28.4975 11.4377C29.4351 12.3754 29.9619 13.6472 29.9619 14.9732C29.9619 15.4153 29.7863 15.8392 29.4738 16.1517C29.1612 16.4643 28.7373 16.6399 28.2953 16.6399ZM24.7952 28.0932L23.4703 39.9732H16.4619L15.1286 28.0932C15.1286 26.8114 15.6378 25.582 16.5442 24.6756C17.4507 23.7691 18.68 23.2599 19.9619 23.2599C21.2438 23.2599 22.4732 23.7691 23.3796 24.6756C24.286 25.582 24.7952 26.8114 24.7952 28.0932ZM11.6286 26.6399L13.1019 39.9732C11.3611 39.9734 9.67409 39.3704 8.32792 38.2667C6.98174 37.163 6.05965 35.6269 5.71858 33.9199L3.59525 23.3066H8.29525C9.17931 23.3066 10.0272 23.6578 10.6523 24.2829C11.2774 24.908 11.6286 25.7558 11.6286 26.6399ZM31.6286 23.3066H36.3286L34.2052 33.9216C33.8639 35.628 32.9419 37.1635 31.5961 38.2668C30.2503 39.3701 28.5638 39.9731 26.8236 39.9732L28.2953 26.6399C28.2953 25.7558 28.6464 24.908 29.2716 24.2829C29.8967 23.6578 30.7445 23.3066 31.6286 23.3066Z" fill="white"/>
</g>
<defs>
<clipPath id="clip0_49_14">
<rect width="40" height="40" fill="white"/>
</clipPath>
</defs>
</svg>
