<svg width="364" height="87" viewBox="0 0 364 87" fill="none" xmlns="http://www.w3.org/2000/svg">
<path opacity="0.1" d="M19.6514 67V67C123.387 24.0857 240.815 24.3303 344.651 67V67" stroke="white" stroke-width="2"/>
<g filter="url(#filter0_f_161_321)">
<path d="M19.6514 67L35.7683 62.0742C129.816 33.3308 230.251 32.9593 324.509 61.0064L344.651 67" stroke="white"/>
</g>
<path d="M156.192 71.077C156.009 71.077 155.866 71.0257 155.763 70.923C155.668 70.8203 155.62 70.6773 155.62 70.494L155.62 63.828C155.62 63.6373 155.671 63.4943 155.774 63.399C155.877 63.2963 156.02 63.245 156.203 63.245L158.832 63.245C159.668 63.245 160.313 63.454 160.768 63.872C161.223 64.2827 161.45 64.862 161.45 65.61C161.45 66.3653 161.223 66.952 160.768 67.37C160.313 67.7807 159.668 67.986 158.832 67.986L156.764 67.986L156.764 70.494C156.764 70.6773 156.716 70.8203 156.621 70.923C156.526 71.0257 156.383 71.077 156.192 71.077ZM156.764 67.073L158.667 67.073C159.217 67.073 159.631 66.952 159.91 66.71C160.196 66.4607 160.339 66.094 160.339 65.61C160.339 65.1333 160.196 64.774 159.91 64.532C159.631 64.2827 159.217 64.158 158.667 64.158L156.764 64.158L156.764 67.073ZM161.599 71.077C161.452 71.077 161.335 71.044 161.247 70.978C161.159 70.912 161.107 70.824 161.093 70.714C161.078 70.604 161.1 70.4793 161.159 70.34L164.14 63.652C164.213 63.476 164.305 63.3513 164.415 63.278C164.532 63.2047 164.66 63.168 164.8 63.168C164.932 63.168 165.053 63.2047 165.163 63.278C165.28 63.3513 165.375 63.476 165.449 63.652L168.43 70.34C168.496 70.4793 168.521 70.6077 168.507 70.725C168.492 70.835 168.444 70.923 168.364 70.989C168.283 71.0477 168.169 71.077 168.023 71.077C167.861 71.077 167.733 71.0367 167.638 70.956C167.542 70.8753 167.458 70.7507 167.385 70.582L166.615 68.8L167.132 69.108L162.446 69.108L162.952 68.8L162.193 70.582C162.119 70.758 162.039 70.8863 161.951 70.967C161.863 71.0403 161.745 71.077 161.599 71.077ZM164.778 64.51L163.117 68.448L162.842 68.184L166.725 68.184L166.472 68.448L164.8 64.51L164.778 64.51ZM170.041 71.077C169.873 71.077 169.741 71.0293 169.645 70.934C169.55 70.8387 169.502 70.703 169.502 70.527L169.502 63.74C169.502 63.5567 169.546 63.4173 169.634 63.322C169.73 63.2193 169.854 63.168 170.008 63.168C170.14 63.168 170.239 63.1937 170.305 63.245C170.379 63.289 170.463 63.3733 170.558 63.498L175.09 69.471L174.815 69.471L174.815 63.707C174.815 63.5383 174.859 63.4063 174.947 63.311C175.043 63.2157 175.175 63.168 175.343 63.168C175.519 63.168 175.651 63.2157 175.739 63.311C175.827 63.4063 175.871 63.5383 175.871 63.707L175.871 70.538C175.871 70.7067 175.827 70.8387 175.739 70.934C175.659 71.0293 175.549 71.077 175.409 71.077C175.277 71.077 175.167 71.0513 175.079 71C174.999 70.9487 174.911 70.8607 174.815 70.736L170.305 64.774L170.558 64.774L170.558 70.527C170.558 70.703 170.514 70.8387 170.426 70.934C170.338 71.0293 170.21 71.077 170.041 71.077ZM179.901 71.077C179.718 71.077 179.575 71.0257 179.472 70.923C179.377 70.8203 179.329 70.6773 179.329 70.494L179.329 64.202L176.997 64.202C176.843 64.202 176.722 64.1617 176.634 64.081C176.546 63.993 176.502 63.872 176.502 63.718C176.502 63.564 176.546 63.4467 176.634 63.366C176.722 63.2853 176.843 63.245 176.997 63.245L182.794 63.245C182.955 63.245 183.08 63.2853 183.168 63.366C183.256 63.4467 183.3 63.564 183.3 63.718C183.3 63.872 183.256 63.993 183.168 64.081C183.08 64.1617 182.955 64.202 182.794 64.202L180.462 64.202L180.462 70.494C180.462 70.6773 180.414 70.8203 180.319 70.923C180.231 71.0257 180.092 71.077 179.901 71.077ZM183.029 71.077C182.882 71.077 182.765 71.044 182.677 70.978C182.589 70.912 182.538 70.824 182.523 70.714C182.508 70.604 182.53 70.4793 182.589 70.34L185.57 63.652C185.643 63.476 185.735 63.3513 185.845 63.278C185.962 63.2047 186.091 63.168 186.23 63.168C186.362 63.168 186.483 63.2047 186.593 63.278C186.71 63.3513 186.806 63.476 186.879 63.652L189.86 70.34C189.926 70.4793 189.952 70.6077 189.937 70.725C189.922 70.835 189.875 70.923 189.794 70.989C189.713 71.0477 189.6 71.077 189.453 71.077C189.292 71.077 189.163 71.0367 189.068 70.956C188.973 70.8753 188.888 70.7507 188.815 70.582L188.045 68.8L188.562 69.108L183.876 69.108L184.382 68.8L183.623 70.582C183.55 70.758 183.469 70.8863 183.381 70.967C183.293 71.0403 183.176 71.077 183.029 71.077ZM186.208 64.51L184.547 68.448L184.272 68.184L188.155 68.184L187.902 68.448L186.23 64.51L186.208 64.51ZM191.516 71C191.332 71 191.189 70.9487 191.087 70.846C190.984 70.7433 190.933 70.6003 190.933 70.417L190.933 63.784C190.933 63.5933 190.98 63.4503 191.076 63.355C191.178 63.2523 191.321 63.201 191.505 63.201C191.688 63.201 191.827 63.2523 191.923 63.355C192.025 63.4503 192.077 63.5933 192.077 63.784L192.077 70.021L195.487 70.021C195.648 70.021 195.773 70.065 195.861 70.153C195.949 70.2337 195.993 70.351 195.993 70.505C195.993 70.659 195.949 70.78 195.861 70.868C195.773 70.956 195.648 71 195.487 71L191.516 71ZM197.345 71C197.162 71 197.019 70.9487 196.916 70.846C196.813 70.7433 196.762 70.6003 196.762 70.417L196.762 63.784C196.762 63.5933 196.81 63.4503 196.905 63.355C197.008 63.2523 197.151 63.201 197.334 63.201C197.517 63.201 197.657 63.2523 197.752 63.355C197.855 63.4503 197.906 63.5933 197.906 63.784L197.906 70.021L201.316 70.021C201.477 70.021 201.602 70.065 201.69 70.153C201.778 70.2337 201.822 70.351 201.822 70.505C201.822 70.659 201.778 70.78 201.69 70.868C201.602 70.956 201.477 71 201.316 71L197.345 71ZM202.343 71.077C202.197 71.077 202.079 71.044 201.991 70.978C201.903 70.912 201.852 70.824 201.837 70.714C201.823 70.604 201.845 70.4793 201.903 70.34L204.884 63.652C204.958 63.476 205.049 63.3513 205.159 63.278C205.277 63.2047 205.405 63.168 205.544 63.168C205.676 63.168 205.797 63.2047 205.907 63.278C206.025 63.3513 206.12 63.476 206.193 63.652L209.174 70.34C209.24 70.4793 209.266 70.6077 209.251 70.725C209.237 70.835 209.189 70.923 209.108 70.989C209.028 71.0477 208.914 71.077 208.767 71.077C208.606 71.077 208.478 71.0367 208.382 70.956C208.287 70.8753 208.203 70.7507 208.129 70.582L207.359 68.8L207.876 69.108L203.19 69.108L203.696 68.8L202.937 70.582C202.864 70.758 202.783 70.8863 202.695 70.967C202.607 71.0403 202.49 71.077 202.343 71.077ZM205.522 64.51L203.861 68.448L203.586 68.184L207.469 68.184L207.216 68.448L205.544 64.51L205.522 64.51Z" fill="#DDDDDD" fill-opacity="0.7"/>
<defs>
<filter id="filter0_f_161_321" x="0.505127" y="20.7404" width="363.289" height="65.7388" filterUnits="userSpaceOnUse" color-interpolation-filters="sRGB">
<feFlood flood-opacity="0" result="BackgroundImageFix"/>
<feBlend mode="normal" in="SourceGraphic" in2="BackgroundImageFix" result="shape"/>
<feGaussianBlur stdDeviation="9.5" result="effect1_foregroundBlur_161_321"/>
</filter>
</defs>
</svg>
