<svg width="40" height="40" viewBox="0 0 40 40" fill="none" xmlns="http://www.w3.org/2000/svg">
<path d="M35.0001 6.66664H29.8335C29.0361 2.7893 25.6253 0.005 21.6668 0H18.3334C14.3749 0.005 10.9641 2.7893 10.1668 6.66664H5.00014C4.07967 6.66664 3.3335 7.41281 3.3335 8.33328C3.3335 9.25375 4.07967 10 5.00014 10H6.66678V31.6666C6.67232 36.2667 10.4001 39.9945 15.0001 40H25.0001C29.6002 39.9945 33.3279 36.2667 33.3335 31.6666V10H35.0001C35.9206 10 36.6668 9.25383 36.6668 8.33336C36.6668 7.41289 35.9206 6.66664 35.0001 6.66664ZM18.3335 28.3334C18.3335 29.2538 17.5873 30 16.6669 30C15.7463 30 15.0001 29.2538 15.0001 28.3334V18.3334C15.0001 17.4129 15.7463 16.6667 16.6668 16.6667C17.5872 16.6667 18.3334 17.4129 18.3334 18.3334V28.3334H18.3335ZM25.0001 28.3334C25.0001 29.2538 24.254 30 23.3335 30C22.413 30 21.6669 29.2538 21.6669 28.3334V18.3334C21.6669 17.4129 22.413 16.6667 23.3335 16.6667C24.254 16.6667 25.0001 17.4129 25.0001 18.3334V28.3334ZM13.6185 6.66664C14.3274 4.67047 16.2152 3.33586 18.3335 3.33328H21.6669C23.7851 3.33586 25.673 4.67047 26.3819 6.66664H13.6185Z" fill="white"/>
</svg>
