<svg width="40" height="40" viewBox="0 0 40 40" fill="none" xmlns="http://www.w3.org/2000/svg">
<g clip-path="url(#clip0_170_20)">
<path d="M40.0001 7.50011C40.0001 7.94213 39.8245 8.36606 39.5119 8.67862C39.1994 8.99118 38.7754 9.16677 38.3334 9.16677C37.8914 9.16677 37.4674 8.99118 37.1549 8.67862C36.8423 8.36606 36.6667 7.94213 36.6667 7.50011C36.6482 6.91755 36.5118 6.34478 36.2659 5.81635C36.0199 5.28792 35.6695 4.81476 35.2358 4.42541C34.8021 4.03606 34.294 3.73858 33.7422 3.55091C33.1903 3.36324 32.6062 3.28926 32.0251 3.33344C31.583 3.33344 31.1591 3.15785 30.8466 2.84528C30.534 2.53272 30.3584 2.1088 30.3584 1.66677C30.3584 1.22475 30.534 0.800822 30.8466 0.488262C31.1591 0.175701 31.583 0.000106177 32.0251 0.000106177C33.0436 -0.0411145 34.0602 0.121209 35.0153 0.47758C35.9703 0.83395 36.8448 1.37721 37.5874 2.07558C38.33 2.77395 38.9258 3.6134 39.3401 4.54482C39.7544 5.47624 39.9787 6.48093 40.0001 7.50011Z" fill="white"/>
<path d="M3.33333 7.50011C3.35191 6.91755 3.48827 6.34478 3.7342 5.81635C3.98012 5.28792 4.33052 4.81476 4.76425 4.42541C5.19799 4.03606 5.70608 3.73858 6.2579 3.55091C6.80971 3.36324 7.39382 3.28926 7.975 3.33344C8.41703 3.33344 8.84095 3.15785 9.15351 2.84528C9.46607 2.53272 9.64167 2.1088 9.64167 1.66677C9.64167 1.22475 9.46607 0.800822 9.15351 0.488262C8.84095 0.175701 8.41703 0.000106177 7.975 0.000106177C6.95644 -0.0411145 5.93988 0.121209 4.9848 0.47758C4.02973 0.83395 3.15531 1.37721 2.41271 2.07558C1.67011 2.77395 1.07424 3.6134 0.659968 4.54482C0.245692 5.47624 0.0213271 6.48093 0 7.50011C0 7.94213 0.175595 8.36606 0.488155 8.67862C0.800716 8.99118 1.22464 9.16677 1.66667 9.16677C2.10869 9.16677 2.53262 8.99118 2.84518 8.67862C3.15774 8.36606 3.33333 7.94213 3.33333 7.50011Z" fill="white"/>
<path d="M33.8651 33.6267C36.0708 31.0803 37.5307 27.9744 38.0841 24.6513C38.6375 21.3283 38.2629 17.9169 37.0014 14.7931C35.74 11.6694 33.6408 8.95439 30.9351 6.94737C28.2294 4.94034 25.0221 3.71915 21.6668 3.41833V1.66667C21.6668 1.22464 21.4912 0.800716 21.1786 0.488155C20.866 0.175595 20.4421 0 20.0001 0C19.5581 0 19.1341 0.175595 18.8216 0.488155C18.509 0.800716 18.3334 1.22464 18.3334 1.66667V3.41833C14.978 3.71915 11.7708 4.94034 9.06507 6.94737C6.35934 8.95439 4.26013 11.6694 2.99873 14.7931C1.73733 17.9169 1.36269 21.3283 1.91608 24.6513C2.46948 27.9744 3.92943 31.0803 6.13509 33.6267C5.26404 34.0576 4.53614 34.7311 4.03907 35.5662C3.54199 36.4012 3.29694 37.3622 3.33342 38.3333C3.33342 38.7754 3.50902 39.1993 3.82158 39.5118C4.13414 39.8244 4.55806 40 5.00009 40C5.44212 40 5.86604 39.8244 6.1786 39.5118C6.49116 39.1993 6.66676 38.7754 6.66676 38.3333C6.6529 37.8196 6.83733 37.3203 7.18179 36.9389C7.52624 36.5575 8.00428 36.3234 8.51676 36.285C8.6314 36.2632 8.74321 36.2285 8.85009 36.1817C12.0426 38.6578 15.9681 40.0017 20.0084 40.0017C24.0487 40.0017 27.9742 38.6578 31.1668 36.1817C31.2643 36.2266 31.3659 36.2623 31.4701 36.2883C31.9844 36.3234 32.4652 36.5557 32.8124 36.9367C33.1596 37.3177 33.3462 37.818 33.3334 38.3333C33.3334 38.7754 33.509 39.1993 33.8216 39.5118C34.1341 39.8244 34.5581 40 35.0001 40C35.4421 40 35.866 39.8244 36.1786 39.5118C36.4912 39.1993 36.6668 38.7754 36.6668 38.3333C36.7032 37.3622 36.4582 36.4012 35.9611 35.5662C35.464 34.7311 34.7361 34.0576 33.8651 33.6267ZM26.1784 26.1783C25.8659 26.4908 25.442 26.6663 25.0001 26.6663C24.5581 26.6663 24.1343 26.4908 23.8218 26.1783L18.8218 21.1783C18.5092 20.8658 18.3335 20.442 18.3334 20V11.6667C18.3334 11.2246 18.509 10.8007 18.8216 10.4882C19.1341 10.1756 19.5581 10 20.0001 10C20.4421 10 20.866 10.1756 21.1786 10.4882C21.4912 10.8007 21.6668 11.2246 21.6668 11.6667V19.31L26.1784 23.8217C26.4909 24.1342 26.6664 24.5581 26.6664 25C26.6664 25.4419 26.4909 25.8658 26.1784 26.1783Z" fill="white"/>
</g>
<defs>
<clipPath id="clip0_170_20">
<rect width="40" height="40" fill="white"/>
</clipPath>
</defs>
</svg>
