<svg width="40" height="40" viewBox="0 0 40 40" fill="none" xmlns="http://www.w3.org/2000/svg">
<path d="M17.4703 32.5C16.8077 32.4999 16.1723 32.2367 15.7036 31.7684L8.06029 24.125C6.96824 23.03 6.35498 21.5466 6.35498 20C6.35498 18.4535 6.96824 16.9701 8.06029 15.875L15.7036 8.2317C16.1726 7.76293 16.8086 7.49966 17.4717 7.49982C18.1348 7.49997 18.7707 7.76354 19.2395 8.23253C19.7082 8.70152 19.9715 9.33752 19.9713 10.0006C19.9712 10.6637 19.7076 11.2996 19.2386 11.7684L11.5953 19.41C11.5177 19.4874 11.4561 19.5794 11.4141 19.6806C11.3721 19.7819 11.3505 19.8904 11.3505 20C11.3505 20.1096 11.3721 20.2182 11.4141 20.3194C11.4561 20.4207 11.5177 20.5126 11.5953 20.59L19.2386 28.2317C19.5885 28.5813 19.8268 29.0269 19.9233 29.512C20.0199 29.9971 19.9704 30.4999 19.7811 30.9569C19.5917 31.4138 19.2711 31.8044 18.8598 32.0791C18.4485 32.3538 17.9649 32.5003 17.4703 32.5Z" fill="white"/>
<path d="M29.1367 32.5C28.4741 32.4999 27.8387 32.2367 27.37 31.7684L17.37 21.7684C17.1377 21.5362 16.9534 21.2605 16.8277 20.9571C16.7019 20.6537 16.6372 20.3285 16.6372 20C16.6372 19.6716 16.7019 19.3464 16.8277 19.043C16.9534 18.7395 17.1377 18.4639 17.37 18.2317L27.37 8.2317C27.6022 7.99958 27.8779 7.81548 28.1812 7.68991C28.4846 7.56433 28.8097 7.49974 29.1381 7.49982C29.4664 7.49989 29.7915 7.56464 30.0948 7.69036C30.3981 7.81608 30.6737 8.00031 30.9058 8.23253C31.1379 8.46475 31.322 8.74041 31.4476 9.04378C31.5732 9.34715 31.6378 9.67229 31.6377 10.0006C31.6376 10.3289 31.5729 10.6541 31.4472 10.9574C31.3214 11.2607 31.1372 11.5363 30.905 11.7684L22.6667 20L30.8983 28.2317C31.2478 28.5809 31.4859 29.0259 31.5827 29.5104C31.6795 29.9948 31.6305 30.4971 31.442 30.9538C31.2535 31.4105 30.934 31.8011 30.5237 32.0763C30.1134 32.3515 29.6307 32.4989 29.1367 32.5Z" fill="white"/>
</svg>
