<svg width="40" height="40" viewBox="0 0 40 40" fill="none" xmlns="http://www.w3.org/2000/svg">
<path d="M28.3333 18.3333H21.6667V11.6667C21.6667 11.2246 21.4911 10.8007 21.1785 10.4882C20.8659 10.1756 20.442 10 20 10C19.558 10 19.134 10.1756 18.8215 10.4882C18.5089 10.8007 18.3333 11.2246 18.3333 11.6667V18.3333H11.6667C11.2246 18.3333 10.8007 18.5089 10.4882 18.8215C10.1756 19.134 10 19.558 10 20C10 20.442 10.1756 20.8659 10.4882 21.1785C10.8007 21.4911 11.2246 21.6667 11.6667 21.6667H18.3333V28.3333C18.3333 28.7754 18.5089 29.1993 18.8215 29.5118C19.134 29.8244 19.558 30 20 30C20.442 30 20.8659 29.8244 21.1785 29.5118C21.4911 29.1993 21.6667 28.7754 21.6667 28.3333V21.6667H28.3333C28.7754 21.6667 29.1993 21.4911 29.5118 21.1785C29.8244 20.8659 30 20.442 30 20C30 19.558 29.8244 19.134 29.5118 18.8215C29.1993 18.5089 28.7754 18.3333 28.3333 18.3333Z" fill="white"/>
</svg>
