<svg width="40" height="40" viewBox="0 0 40 40" fill="none" xmlns="http://www.w3.org/2000/svg">
<g clip-path="url(#clip0_48_208)">
<path d="M10 40H13.55C14.2959 39.9929 15.0183 39.7383 15.6038 39.2762C16.1894 38.814 16.6048 38.1705 16.785 37.4467C16.978 36.7419 17.3971 36.1201 17.978 35.6769C18.5589 35.2337 19.2693 34.9936 20 34.9936C20.7307 34.9936 21.4411 35.2337 22.022 35.6769C22.6029 36.1201 23.022 36.7419 23.215 37.4467C23.3952 38.1705 23.8106 38.814 24.3962 39.2762C24.9817 39.7383 25.7041 39.9929 26.45 40H30C31.3261 40 32.5979 39.4732 33.5355 38.5355C34.4732 37.5979 35 36.3261 35 35V28.3333H28.3333C27.8913 28.3333 27.4674 28.1577 27.1548 27.8452C26.8423 27.5326 26.6667 27.1087 26.6667 26.6667C26.6667 26.2246 26.8423 25.8007 27.1548 25.4882C27.4674 25.1756 27.8913 25 28.3333 25H35V8.33333C34.9974 6.12401 34.1185 4.00593 32.5563 2.4437C30.9941 0.88147 28.876 0.00264643 26.6667 0L26.45 0C25.7041 0.00708636 24.9817 0.261689 24.3962 0.723832C23.8106 1.18598 23.3952 1.82949 23.215 2.55333C23.022 3.25806 22.6029 3.87987 22.022 4.32309C21.4411 4.76631 20.7307 5.00639 20 5.00639C19.2693 5.00639 18.5589 4.76631 17.978 4.32309C17.3971 3.87987 16.978 3.25806 16.785 2.55333C16.6048 1.82949 16.1894 1.18598 15.6038 0.723832C15.0183 0.261689 14.2959 0.00708636 13.55 0L13.3333 0C11.124 0.00264643 9.00593 0.88147 7.4437 2.4437C5.88147 4.00593 5.00265 6.12401 5 8.33333V25H11.6667C12.1087 25 12.5326 25.1756 12.8452 25.4882C13.1577 25.8007 13.3333 26.2246 13.3333 26.6667C13.3333 27.1087 13.1577 27.5326 12.8452 27.8452C12.5326 28.1577 12.1087 28.3333 11.6667 28.3333H5V35C5 36.3261 5.52678 37.5979 6.46447 38.5355C7.40215 39.4732 8.67392 40 10 40ZM18.3333 25H21.6667C22.1087 25 22.5326 25.1756 22.8452 25.4882C23.1577 25.8007 23.3333 26.2246 23.3333 26.6667C23.3333 27.1087 23.1577 27.5326 22.8452 27.8452C22.5326 28.1577 22.1087 28.3333 21.6667 28.3333H18.3333C17.8913 28.3333 17.4674 28.1577 17.1548 27.8452C16.8423 27.5326 16.6667 27.1087 16.6667 26.6667C16.6667 26.2246 16.8423 25.8007 17.1548 25.4882C17.4674 25.1756 17.8913 25 18.3333 25Z" fill="white"/>
</g>
<defs>
<clipPath id="clip0_48_208">
<rect width="40" height="40" fill="white"/>
</clipPath>
</defs>
</svg>
