<svg width="40" height="40" viewBox="0 0 40 40" fill="none" xmlns="http://www.w3.org/2000/svg">
<g clip-path="url(#clip0_174_18)">
<path d="M11.4351 10.265L26.2284 29.6067H28.4951L13.8701 10.265H11.4351Z" fill="white"/>
<path d="M20 0C8.955 0 0 8.955 0 20C0 31.045 8.955 40 20 40C31.045 40 40 31.045 40 20C40 8.955 31.045 0 20 0ZM25.105 32.0533L18.655 23.6283L11.285 32.0533H7.18833L16.7433 21.13L6.66667 7.94667H15.1033L20.9267 15.6483L27.665 7.94667H31.7567L22.8217 18.1567L33.3333 32.0517L25.105 32.0533Z" fill="white"/>
</g>
<defs>
<clipPath id="clip0_174_18">
<rect width="40" height="40" fill="white"/>
</clipPath>
</defs>
</svg>
